HIERARCHY
ROOT Hips
{
  OFFSET 5.84602e-005 68.8428 3.50346
  CHANNELS 6 Xposition Yposition Zposition Zrotation Xrotation Yrotation
  JOINT Spine
  {
    OFFSET 0 8.597 -4.6522
    CHANNELS 3 Zrotation Xrotation Yrotation
    JOINT Spine1
    {
      OFFSET 0 7.8454 0.4098
      CHANNELS 3 Zrotation Xrotation Yrotation
      JOINT Spine2
      {
        OFFSET 0 9.7078 -2.1609
        CHANNELS 3 Zrotation Xrotation Yrotation
        JOINT Neck
        {
          OFFSET 0 21.8761 -0.4549
          CHANNELS 3 Zrotation Xrotation Yrotation
          JOINT Head
          {
            OFFSET 0 12.3537 3.3602
            CHANNELS 3 Zrotation Xrotation Yrotation
            End Site
            {
              OFFSET 0.0001 18.9506 0.5657
            }
          }
        }
        JOINT LeftShoulder
        {
          OFFSET 2.2086 21.1115 7.2329
          CHANNELS 3 Zrotation Xrotation Yrotation
          JOINT LeftArm
          {
            OFFSET 13.1193 3.0282 -4.8998
            CHANNELS 3 Zrotation Xrotation Yrotation
            JOINT LeftForeArm
            {
              OFFSET 27.4081 -0.0973053 -0.2375
              CHANNELS 3 Zrotation Xrotation Yrotation
              JOINT LeftHand
              {
                OFFSET 22.8641 0.0662994 -0.1369
                CHANNELS 3 Zrotation Xrotation Yrotation
                JOINT LeftHandIndex1
                {
                  OFFSET 8.8614 0.775009 2.4612
                  CHANNELS 3 Zrotation Xrotation Yrotation
                  JOINT LeftHandIndex2
                  {
                    OFFSET 3.3146 -0.808304 0.5841
                    CHANNELS 3 Zrotation Xrotation Yrotation
                    JOINT LeftHandIndex3
                    {
                      OFFSET 2.2628 -0.552002 0.3989
                      CHANNELS 3 Zrotation Xrotation Yrotation
                      End Site
                      {
                        OFFSET 1.6102 -0.4807 0.2612
                      }
                    }
                  }
                }
                JOINT LeftHandMiddle1
                {
                  OFFSET 8.9937 0.895004 0.2143
                  CHANNELS 3 Zrotation Xrotation Yrotation
                  JOINT LeftHandMiddle2
                  {
                    OFFSET 4.0984 0.0113983 -0.0242
                    CHANNELS 3 Zrotation Xrotation Yrotation
                    JOINT LeftHandMiddle3
                    {
                      OFFSET 2.2716 0.00689697 -0.0138001
                      CHANNELS 3 Zrotation Xrotation Yrotation
                      End Site
                      {
                        OFFSET 2.0404 -0.1441 0.0027
                      }
                    }
                  }
                }
                JOINT LeftHandRing1
                {
                  OFFSET 8.5234 0.597198 -2.0164
                  CHANNELS 3 Zrotation Xrotation Yrotation
                  JOINT LeftHandRing2
                  {
                    OFFSET 3.7188 -0.188293 -0.2328
                    CHANNELS 3 Zrotation Xrotation Yrotation
                    JOINT LeftHandRing3
                    {
                      OFFSET 2.1191 -0.106598 -0.1332
                      CHANNELS 3 Zrotation Xrotation Yrotation
                      End Site
                      {
                        OFFSET 1.8737 -0.2304 -0.0886
                      }
                    }
                  }
                }
                JOINT LeftHandPinky1
                {
                  OFFSET 7.9094 -0.601089 -3.4825
                  CHANNELS 3 Zrotation Xrotation Yrotation
                  JOINT LeftHandPinky2
                  {
                    OFFSET 2.2874 -0.477005 -0.6314
                    CHANNELS 3 Zrotation Xrotation Yrotation
                    JOINT LeftHandPinky3
                    {
                      OFFSET 1.6774 -0.349396 -0.4633
                      CHANNELS 3 Zrotation Xrotation Yrotation
                      End Site
                      {
                        OFFSET 1.4888 -0.4091 -0.3416
                      }
                    }
                  }
                }
                JOINT LeftHandThumb1
                {
                  OFFSET 1.833 -1.3875 1.3896
                  CHANNELS 3 Zrotation Xrotation Yrotation
                  JOINT LeftHandThumb2
                  {
                    OFFSET 3.4129 -1.121 2.5732
                    CHANNELS 3 Zrotation Xrotation Yrotation
                    JOINT LeftHandThumb3
                    {
                      OFFSET 2.2474 -0.804199 1.6192
                      CHANNELS 3 Zrotation Xrotation Yrotation
                      End Site
                      {
                        OFFSET 1.6527 -0.5689 1.1317
                      }
                    }
                  }
                }
              }
            }
          }
        }
        JOINT RightShoulder
        {
          OFFSET -2.2086 21.1115 7.2329
          CHANNELS 3 Zrotation Xrotation Yrotation
          JOINT RightArm
          {
            OFFSET -13.1216 3.0287 -4.9007
            CHANNELS 3 Zrotation Xrotation Yrotation
            JOINT RightForeArm
            {
              OFFSET -27.4081 -0.0973053 -0.2375
              CHANNELS 3 Zrotation Xrotation Yrotation
              JOINT RightHand
              {
                OFFSET -22.8641 0.0664063 -0.1369
                CHANNELS 3 Zrotation Xrotation Yrotation
                JOINT RightHandIndex1
                {
                  OFFSET -8.8614 0.774994 2.4612
                  CHANNELS 3 Zrotation Xrotation Yrotation
                  JOINT RightHandIndex2
                  {
                    OFFSET -3.3146 -0.808304 0.5841
                    CHANNELS 3 Zrotation Xrotation Yrotation
                    JOINT RightHandIndex3
                    {
                      OFFSET -2.2628 -0.552002 0.3989
                      CHANNELS 3 Zrotation Xrotation Yrotation
                      End Site
                      {
                        OFFSET -1.6102 -0.4807 0.2612
                      }
                    }
                  }
                }
                JOINT RightHandMiddle1
                {
                  OFFSET -8.9937 0.894989 0.2143
                  CHANNELS 3 Zrotation Xrotation Yrotation
                  JOINT RightHandMiddle2
                  {
                    OFFSET -4.0984 0.0113983 -0.0242
                    CHANNELS 3 Zrotation Xrotation Yrotation
                    JOINT RightHandMiddle3
                    {
                      OFFSET -2.2716 0.00691223 -0.0138001
                      CHANNELS 3 Zrotation Xrotation Yrotation
                      End Site
                      {
                        OFFSET -2.0404 -0.1441 0.0027
                      }
                    }
                  }
                }
                JOINT RightHandRing1
                {
                  OFFSET -8.5234 0.597198 -2.0164
                  CHANNELS 3 Zrotation Xrotation Yrotation
                  JOINT RightHandRing2
                  {
                    OFFSET -3.7188 -0.188309 -0.2328
                    CHANNELS 3 Zrotation Xrotation Yrotation
                    JOINT RightHandRing3
                    {
                      OFFSET -2.1191 -0.106598 -0.1332
                      CHANNELS 3 Zrotation Xrotation Yrotation
                      End Site
                      {
                        OFFSET -1.8737 -0.2304 -0.0886
                      }
                    }
                  }
                }
                JOINT RightHandPinky1
                {
                  OFFSET -7.9094 -0.601105 -3.4825
                  CHANNELS 3 Zrotation Xrotation Yrotation
                  JOINT RightHandPinky2
                  {
                    OFFSET -2.2874 -0.477005 -0.6314
                    CHANNELS 3 Zrotation Xrotation Yrotation
                    JOINT RightHandPinky3
                    {
                      OFFSET -1.6774 -0.349396 -0.4633
                      CHANNELS 3 Zrotation Xrotation Yrotation
                      End Site
                      {
                        OFFSET -1.4888 -0.4091 -0.3416
                      }
                    }
                  }
                }
                JOINT RightHandThumb1
                {
                  OFFSET -1.833 -1.38751 1.3896
                  CHANNELS 3 Zrotation Xrotation Yrotation
                  JOINT RightHandThumb2
                  {
                    OFFSET -3.41299 -1.12099 2.5732
                    CHANNELS 3 Zrotation Xrotation Yrotation
                    JOINT RightHandThumb3
                    {
                      OFFSET -2.24741 -0.804108 1.6192
                      CHANNELS 3 Zrotation Xrotation Yrotation
                      End Site
                      {
                        OFFSET -1.6527 -0.5689 1.1317
                      }
                    }
                  }
                }
              }
            }
          }
        }
      }
    }
  }
  JOINT RightUpLeg
  {
    OFFSET -9.1966 3.8861 -0.7581
    CHANNELS 3 Zrotation Xrotation Yrotation
    JOINT RightLeg
    {
      OFFSET -0.7359 -41.0265 0
      CHANNELS 3 Zrotation Xrotation Yrotation
      JOINT RightFoot
      {
        OFFSET 0 -40.2855 0
        CHANNELS 3 Zrotation Xrotation Yrotation
        JOINT RightToeBase
        {
          OFFSET 0 -5.6122 11.7359
          CHANNELS 3 Zrotation Xrotation Yrotation
          End Site
          {
            OFFSET 0 0 7.8731
          }
        }
      }
    }
  }
  JOINT LeftUpLeg
  {
    OFFSET 9.1965 3.8864 -0.7581
    CHANNELS 3 Zrotation Xrotation Yrotation
    JOINT LeftLeg
    {
      OFFSET 0.7359 -41.0268 0
      CHANNELS 3 Zrotation Xrotation Yrotation
      JOINT LeftFoot
      {
        OFFSET 0 -40.2855 0
        CHANNELS 3 Zrotation Xrotation Yrotation
        JOINT LeftToeBase
        {
          OFFSET 0 -5.6122 11.7359
          CHANNELS 3 Zrotation Xrotation Yrotation
          End Site
          {
            OFFSET 0 0 7.8731
          }
        }
      }
    }
  }
}
MOTION
Frames:	4
Frame Time:	0.0333333
5.84602e-005 68.8428 3.50346 0 0 -0 0 0 -0 0 0 -0 0 0 -0 0 0 -0 0 0 -0 0 0 -0 0 0 -0 0 0 -0 0 0 -0 0 0 -0 0 0 -0 0 0 -0 0 0 -0 -0.0146107 -8.87603e-005 -2.63497e-007 2.99804e-018 -2.42657e-020 -1.42182e-022 0 0 -0 -0.0187562 -0.001176 5.858e-005 5.06224e-018 3.88251e-019 1.21329e-020 0 0 -0 -0.012269 -0.00324817 0.000675346 -1.74678e-018 3.88251e-019 -0 0 0 -0 0 0 -0 0 0 -0 0 0 -0 0 0 -0 0 0 -0 0 0 -0 0 0 -0 0 0 -0 0 0 -0 0 0 -0 0.0149955 -9.10982e-005 2.64101e-007 -9.69331e-018 1.21329e-020 -4.7394e-023 0 0 -0 0.0189956 -0.00119102 -5.96516e-005 -5.41541e-019 0 2.42657e-020 0 0 -0 0.0122698 -0.00324857 -0.000673756 -2.00796e-019 0 -1.94126e-019 0 0 -0 0 0 -0 0 0 -0 3.39842 1.33031 -0.0637918 -5.65207e-008 0.834868 -0.000436188 -3.39935 -2.16518 -0.0642563 -8.89002e-024 -1.18485e-023 -1.48106e-024 -3.39844 1.35642 0.0640283 -3.18788e-007 0.782166 -0.000588827 3.39931 -2.13858 0.0634662 1.1399e-023 0 -0 
-0.408721 49.7437 16.6364 -160.413 79.269 1.73588e-006 -0.550983 -1.12474 -0.0926261 -1.10412 -2.24867 -0.196125 -1.10412 -2.24865 -0.196124 -0.000160427 14.2922 6.34719e-005 -3.66113e-006 9.83037 -7.03978e-008 15.0898 9.03864 23.8251 -19.204 22.8491 45.6563 1.21062 27.1627 0.300018 49.1894 -2.83884 -0.417434 3.18055e-015 -9.54166e-015 3.18055e-015 3.18055e-015 -6.36111e-015 -0 3.18055e-015 -3.18055e-015 -0 3.18055e-015 -9.54166e-015 3.18055e-015 -0.0146228 -8.85803e-005 -1.60518e-006 -2.54444e-014 1.90833e-014 9.54166e-015 3.18055e-015 -9.54166e-015 3.18055e-015 -0.0188319 -0.00118122 5.90158e-005 6.36111e-015 3.18055e-015 -0 3.18055e-015 -9.54166e-015 3.18055e-015 -0.0122758 -0.00325066 0.000676467 -1.27222e-014 6.36111e-015 -0 3.18055e-015 -9.54166e-015 3.18055e-015 3.18055e-015 -6.36111e-015 -0 3.18055e-015 -3.18055e-015 -0 -15.5171 9.27566 -26.8799 17.9783 23.9406 -42.3586 -0.686631 27.18 -0.30041 -48.9161 -2.27547 0.163915 -3.33258e-007 -1.30961e-007 1.06318e-007 5.713e-007 2.24504e-007 -1.8226e-007 -2.8565e-007 -1.12252e-007 9.11299e-008 -3.33258e-007 -1.30961e-007 1.06318e-007 0.0149926 -8.7156e-005 -2.71123e-006 -2.8565e-007 -1.1224e-007 9.11448e-008 -3.33258e-007 -1.30961e-007 1.06318e-007 0.0189632 -0.00118539 -5.48107e-005 -2.85649e-007 -1.12237e-007 9.11514e-008 -3.33258e-007 -1.30961e-007 1.06318e-007 0.0122854 -0.00325669 -0.000676478 -2.85647e-007 -1.12244e-007 9.11501e-008 -3.33258e-007 -1.30961e-007 1.06318e-007 5.713e-007 2.24504e-007 -1.8226e-007 -2.8565e-007 -1.12252e-007 9.11299e-008 -37.7918 18.8607 -30.1365 -61.6556 54.082 62.4524 8.5007 12.2249 18.4397 -7.95139e-016 0 -6.36111e-015 40.0569 19.4721 28.4466 55.7568 52.4974 -57.38 -9.16864 15.7935 -20.1064 3.24871e-006 -4.02314e-007 1.4882e-007 
2.0991 43.596 19.4947 -6.66284 87.2885 180 -0.647633 -1.51708 -0.114759 -1.29897 -3.03281 -0.246803 -1.29897 -3.03279 -0.246802 3.14509e-005 16.1596 -2.13248e-005 4.15368e-007 11.0696 -4.40977e-007 16.7608 10.2252 26.8272 -25.9233 22.9018 54.8343 1.26951 31.5991 0.34179 57.712 -3.08184 -0.416724 5.01905e-007 4.90458e-007 -2.18521e-006 5.589e-007 -2.21985e-008 -3.27782e-006 3.30146e-007 2.91472e-007 -1.02988e-006 5.01905e-007 4.90458e-007 -2.18521e-006 -0.0145956 -8.87493e-005 1.19137e-006 5.02722e-007 4.90741e-007 -2.18514e-006 5.01905e-007 4.90458e-007 -2.18521e-006 -0.0187857 -0.00117694 5.42329e-005 5.02937e-007 4.90882e-007 -2.18513e-006 5.01905e-007 4.90458e-007 -2.18521e-006 -0.0122627 -0.00324573 0.000670585 5.02534e-007 4.90871e-007 -2.18521e-006 5.01905e-007 4.90458e-007 -2.18521e-006 5.589e-007 -2.21985e-008 -3.27782e-006 3.30146e-007 2.91472e-007 -1.02988e-006 -17.1652 10.3847 -30.2158 24.618 24.5163 -51.3826 -0.66687 31.6213 -0.342315 -57.4513 -2.46492 0.162881 1.70536e-006 2.64849e-007 2.67511e-008 -1.86799e-006 1.20833e-007 -1.09439e-007 1.70536e-006 2.64849e-007 2.67511e-008 1.70536e-006 2.64849e-007 2.67511e-008 0.0149941 -8.84796e-005 6.08611e-006 1.70531e-006 2.64853e-007 2.67152e-008 1.70536e-006 2.64849e-007 2.67511e-008 0.0189866 -0.00119183 -6.32214e-005 1.7053e-006 2.64858e-007 2.66897e-008 1.70536e-006 2.64849e-007 2.67511e-008 0.0122317 -0.00323817 -0.000680704 1.70532e-006 2.64872e-007 2.66767e-008 1.70536e-006 2.64849e-007 2.67511e-008 -1.86799e-006 1.20833e-007 -1.09439e-007 1.70536e-006 2.64849e-007 2.67511e-008 -43.0976 21.3061 -36.9257 -80.5173 52.8508 78.3968 8.3654 15.0153 22.3234 -3.43258e-007 1.57465e-006 -4.30629e-007 45.5193 20.4751 35.2846 77.3324 52.6925 -76.059 -8.70932 18.0295 -23.8791 -1.61398e-006 3.8379e-007 -3.21154e-007 
1.58001 45.2614 19.2784 -179.996 89.9989 -1.48213e-006 -0.624094 -1.73016 -0.115405 -1.25253 -3.45896 -0.249838 -1.25253 -3.45892 -0.249838 -2.82624e-005 14.9778 -1.58897e-006 -3.11051e-007 10.2007 -3.33882e-007 16.2147 9.99004 24.551 -24.6058 22.5077 53.8493 1.07622 30.4633 0.330487 56.2624 -2.68725 -0.315228 1.59028e-015 -3.18055e-015 6.36111e-015 3.18055e-015 -3.18055e-015 -3.18055e-015 3.18055e-015 -3.18055e-015 -3.18055e-015 1.59028e-015 -3.18055e-015 6.36111e-015 -0.0146274 -8.77467e-005 -2.61157e-007 -1.0277e-007 -1.23708e-007 -1.3837e-006 1.59028e-015 -3.18055e-015 6.36111e-015 -0.0188176 -0.00117991 5.9009e-005 -3.18055e-015 0 -9.54166e-015 1.59028e-015 -3.18055e-015 6.36111e-015 -0.0122762 -0.00324954 0.000680172 -3.18055e-015 1.59028e-015 3.18055e-015 1.59028e-015 -3.18055e-015 6.36111e-015 3.18055e-015 -3.18055e-015 -3.18055e-015 3.18055e-015 -3.18055e-015 -3.18055e-015 -16.6466 10.1564 -27.5807 23.4546 23.8839 -50.7408 -0.504309 30.4866 -0.330976 -56.0813 -2.14221 0.123167 7.43474e-009 -1.21183e-006 -5.18093e-006 -3.26863e-007 7.75411e-007 -1.1782e-007 -2.53793e-006 4.25818e-007 -3.1706e-006 7.43474e-009 -1.21183e-006 -5.18093e-006 0.0149795 -9.13711e-005 -1.67485e-006 -2.53805e-006 4.25404e-007 -3.17065e-006 7.43474e-009 -1.21183e-006 -5.18093e-006 0.0190345 -0.00119201 -5.6573e-005 -2.53811e-006 4.25299e-007 -3.17064e-006 7.43474e-009 -1.21183e-006 -5.18093e-006 0.0122683 -0.00324798 -0.00067728 -2.53812e-006 4.25489e-007 -3.17056e-006 7.43474e-009 -1.21183e-006 -5.18093e-006 -3.26863e-007 7.75411e-007 -1.1782e-007 -2.53793e-006 4.25818e-007 -3.1706e-006 -42.3489 20.4193 -36.9268 -74.9411 53.5298 73.8003 6.70302 14.7924 22.4125 2.38542e-015 -4.77083e-015 -0 44.6916 19.9946 35.4968 71.1401 53.1289 -70.7664 -6.87217 17.7947 -24.1627 -5.18281e-007 -6.18433e-007 3.24567e-006 
